<svg width="91" height="90" viewBox="0 0 91 90" fill="none" xmlns="http://www.w3.org/2000/svg">
<g clip-path="url(#clip0)">
<path d="M80.8231 40.8659L66.4255 8.87371C66.0246 7.98302 64.9777 7.58593 63.5766 8.21646L5.07093 34.546C4.69063 34.7172 4.29353 35.7641 4.69437 36.6548L24.5747 80.8301C24.9756 81.7207 26.0226 82.1178 26.4029 81.9467L72.7255 61.0999C73.4927 60.7547 73.6935 60.541 73.794 60.2784L80.8483 41.679C80.9472 41.4158 80.9386 41.1227 80.8231 40.8659Z" fill="#E9E9E0"/>
<path d="M80.9121 41.5085L67.8505 47.3867L73.7287 60.4484L80.9121 41.5085Z" fill="#D9D7CA"/>
<path d="M24.5746 80.8301L4.69423 36.6549C4.29339 35.7642 4.69049 34.7173 5.58118 34.3164L22.7083 26.6086L44.0402 74.0093L26.9131 81.7171C26.0224 82.1179 24.9754 81.7208 24.5746 80.8301Z" fill="#393939"/>
<path d="M16.8788 51.8732C16.292 51.6415 15.7796 51.31 15.3443 50.8789C14.909 50.4478 14.5552 49.9296 14.2839 49.3267C13.9852 48.6631 13.831 47.9994 13.8214 47.333C13.8118 46.6665 13.9486 46.0191 14.234 45.3895C14.5194 44.76 14.964 44.1662 15.571 43.6094C16.1781 43.0525 16.9495 42.5635 17.8832 42.1433C18.8169 41.7231 19.6923 41.471 20.5062 41.3884C21.3212 41.3053 22.0583 41.3673 22.7176 41.5716C23.3769 41.776 23.9565 42.1037 24.457 42.5559C24.9574 43.008 25.3531 43.5604 25.6468 44.213C25.9182 44.8159 26.0713 45.4244 26.1054 46.0361C26.1394 46.6478 26.0477 47.2511 25.832 47.8439L24.1533 47.0948C24.3324 46.712 24.4179 46.3395 24.4096 45.9734C24.4012 45.6073 24.3245 45.2601 24.1752 44.9283C24.008 44.5568 23.7793 44.2342 23.4864 43.9604C23.1935 43.6865 22.8199 43.4928 22.3642 43.3784C21.9084 43.264 21.3798 43.2501 20.7788 43.3402C20.1778 43.4304 19.4896 43.6421 18.7113 43.9804C17.9618 44.3296 17.3543 44.6971 16.8874 45.0822C16.4204 45.4674 16.0764 45.8635 15.8547 46.2721C15.633 46.6808 15.5192 47.0819 15.5095 47.4786C15.4998 47.8754 15.5774 48.254 15.7407 48.6167C15.9039 48.9794 16.1223 49.288 16.3948 49.5459C16.6672 49.8037 17.0088 49.9973 17.4174 50.1275L16.8788 51.8732Z" fill="white"/>
<path d="M22.7885 59.8886C22.3872 60.0692 21.9598 60.1621 21.5079 60.1653C21.056 60.1685 20.6195 60.0852 20.1981 59.9117C19.7766 59.7381 19.3807 59.4709 19.0104 59.1047C18.6401 58.7384 18.33 58.2762 18.0765 57.7129C17.9678 57.4715 17.8694 57.2175 17.7781 56.9497C17.6867 56.682 17.6148 56.4042 17.5567 56.1161C17.4987 55.8281 17.4703 55.5413 17.47 55.2577C17.4696 54.9742 17.5062 54.7138 17.5799 54.4739L19.0186 54.2069C19.0016 54.3842 19.0032 54.5969 19.0255 54.8467C19.0478 55.0965 19.0774 55.3509 19.1166 55.6117C19.1557 55.8724 19.2065 56.1266 19.2699 56.3765C19.3333 56.6263 19.4102 56.8502 19.501 57.0519C19.7768 57.6648 20.1314 58.0699 20.5649 58.2672C20.9983 58.4646 21.4962 58.4367 22.0583 58.1837C22.4001 58.0299 22.6395 57.7843 22.7767 57.4442C22.914 57.104 23.0023 56.717 23.0427 56.2825C23.0831 55.8481 23.1096 55.3855 23.1247 54.8948C23.1399 54.4042 23.2022 53.9241 23.3096 53.4529C23.417 52.9817 23.6002 52.5493 23.8576 52.1551C24.115 51.7609 24.5154 51.4428 25.0577 51.1988C25.5494 50.9775 26.0277 50.8709 26.4904 50.8801C26.9532 50.8892 27.388 50.9865 27.7916 51.1734C28.1952 51.3603 28.5599 51.6257 28.884 51.9689C29.2082 52.3122 29.4711 52.7108 29.6745 53.1628C29.8824 53.6247 30.0497 54.1114 30.1771 54.6214C30.3046 55.1314 30.3373 55.5753 30.2781 55.9533C30.1207 55.9512 29.9462 55.9462 29.7534 55.9362C29.5607 55.9262 29.3821 55.9151 29.2152 55.9067C29.0484 55.8983 28.9075 55.8887 28.7943 55.8787C28.6811 55.8687 28.617 55.8617 28.6026 55.8563C28.6051 55.7823 28.6145 55.6971 28.631 55.5983C28.6475 55.4994 28.649 55.3701 28.6362 55.2062C28.6234 55.0423 28.5742 54.8417 28.491 54.6008C28.4078 54.3599 28.2688 54.0658 28.0752 53.7182C27.9635 53.5259 27.8219 53.3616 27.6442 53.2228C27.4664 53.0841 27.2776 52.9769 27.073 52.8993C26.8684 52.8217 26.6612 52.7824 26.4486 52.7813C26.236 52.7802 26.0495 52.8164 25.8897 52.8883C25.4884 53.0689 25.2159 53.3294 25.0732 53.672C24.9304 54.0146 24.8444 54.398 24.8114 54.8224C24.7784 55.2469 24.7653 55.7008 24.7711 56.1821C24.7769 56.6633 24.7302 57.1337 24.6362 57.5936C24.5422 58.0534 24.3564 58.483 24.0847 58.8837C23.813 59.2844 23.3815 59.6217 22.7885 59.8886Z" fill="white"/>
<path d="M26.4645 68.057C26.0633 68.2376 25.6358 68.3306 25.1839 68.3338C24.732 68.337 24.2955 68.2537 23.8741 68.0802C23.4527 67.9066 23.0567 67.6394 22.6864 67.2732C22.3161 66.9069 22.006 66.4446 21.7525 65.8813C21.6438 65.6399 21.5454 65.386 21.4541 65.1182C21.3628 64.8504 21.2908 64.5726 21.2327 64.2846C21.1747 63.9966 21.1463 63.7097 21.146 63.4262C21.1457 63.1427 21.1823 62.8823 21.2559 62.6424L22.6946 62.3753C22.6777 62.5526 22.6793 62.7654 22.7015 63.0151C22.7238 63.2649 22.7535 63.5194 22.7926 63.7801C22.8317 64.0409 22.8825 64.2951 22.9459 64.5449C23.0093 64.7948 23.0862 65.0187 23.177 65.2204C23.4528 65.8333 23.8074 66.2384 24.2409 66.4357C24.6744 66.633 25.1722 66.6052 25.7344 66.3522C26.0761 66.1984 26.3155 65.9528 26.4528 65.6126C26.59 65.2725 26.6783 64.8854 26.7187 64.451C26.7592 64.0166 26.7856 63.554 26.8008 63.0633C26.8159 62.5726 26.8782 62.0926 26.9856 61.6214C27.093 61.1502 27.2762 60.7178 27.5336 60.3235C27.791 59.9293 28.1914 59.6113 28.7337 59.3672C29.2254 59.146 29.7037 59.0394 30.1665 59.0485C30.6292 59.0577 31.0641 59.1549 31.4676 59.3418C31.8712 59.5287 32.2359 59.7941 32.56 60.1374C32.8842 60.4806 33.1471 60.8793 33.3505 61.3313C33.5584 61.7931 33.7257 62.2799 33.8532 62.7899C33.9806 63.2999 34.0134 63.7438 33.9541 64.1218C33.7968 64.1197 33.6222 64.1147 33.4295 64.1047C33.2367 64.0947 33.0581 64.0836 32.8912 64.0752C32.7244 64.0667 32.5836 64.0572 32.4704 64.0472C32.3571 64.0371 32.293 64.0302 32.2787 64.0247C32.2811 63.9507 32.2906 63.8656 32.307 63.7667C32.3235 63.6678 32.325 63.5386 32.3122 63.3747C32.2994 63.2108 32.2502 63.0102 32.167 62.7693C32.0838 62.5284 31.9448 62.2343 31.7512 61.8866C31.6395 61.6943 31.498 61.53 31.3202 61.3913C31.1424 61.2526 30.9537 61.1453 30.7491 61.0677C30.5445 60.9901 30.3372 60.9508 30.1246 60.9497C29.912 60.9486 29.7255 60.9848 29.5657 61.0568C29.1644 61.2374 28.8919 61.4978 28.7492 61.8405C28.6064 62.1831 28.5205 62.5664 28.4875 62.9909C28.4545 63.4154 28.4414 63.8693 28.4472 64.3505C28.453 64.8318 28.4062 65.3022 28.3122 65.7621C28.2183 66.2219 28.0325 66.6515 27.7607 67.0522C27.489 67.4528 27.0576 67.7901 26.4645 68.057Z" fill="white"/>
<path d="M51.2045 31.0171L55.6139 29.0327C56.2213 28.7593 56.9385 29.0305 57.2123 29.6389C57.4866 30.2485 58.2022 30.519 58.8107 30.2452C59.4192 29.9714 59.6913 29.2564 59.417 28.6468C58.5964 26.8235 56.445 26.0075 54.6217 26.828L50.2123 28.8124C48.9964 29.3596 47.5626 28.8158 47.0155 27.5999C46.7411 26.9903 46.0255 26.7198 45.417 26.9936C44.8085 27.2675 44.5364 27.9825 44.8108 28.5921C45.358 29.8079 44.8142 31.2417 43.5983 31.7889L39.1889 33.7733C37.3656 34.5938 36.5496 36.7453 37.3702 38.5686C37.6445 39.1782 38.3601 39.4487 38.9686 39.1748C39.5771 38.901 39.8492 38.186 39.5748 37.5764C39.301 36.9679 39.5737 36.2513 40.1811 35.978L44.5905 33.9936C45.9133 33.3983 46.8195 32.272 47.2119 30.9819C48.4377 31.5437 49.8817 31.6124 51.2045 31.0171Z" fill="#393939"/>
<path d="M58.9217 54.0562C58.3745 52.8403 58.9183 51.4065 60.1342 50.8593L64.5436 48.8749C66.3668 48.0544 67.1828 45.9029 66.3623 44.0796C66.088 43.47 65.3724 43.1995 64.7639 43.4734C64.1554 43.7472 63.8833 44.4622 64.1576 45.0718C64.4315 45.6803 64.1588 46.3969 63.5514 46.6703L59.142 48.6546C57.8192 49.2499 56.913 50.3762 56.5206 51.6663C55.2947 51.1045 53.8508 51.0359 52.528 51.6312L48.1186 53.6155C47.5112 53.8889 46.794 53.6178 46.5202 53.0093C46.2458 52.3997 45.5302 52.1292 44.9217 52.403C44.3132 52.6769 44.0411 53.3919 44.3155 54.0015C45.136 55.8247 47.2875 56.6407 49.1108 55.8202L53.5201 53.8358C54.736 53.2887 56.1698 53.8325 56.717 55.0483C56.9913 55.6579 57.7069 55.9284 58.3154 55.6546C58.9239 55.3808 59.196 54.6658 58.9217 54.0562Z" fill="#393939"/>
</g>
<defs>
<clipPath id="clip0">
<rect width="67.6943" height="67.6943" fill="white" transform="translate(62.4751 0.0957031) rotate(65.7706)"/>
</clipPath>
</defs>
</svg>
