<svg width="84" height="84" viewBox="0 0 84 84" fill="none" xmlns="http://www.w3.org/2000/svg">
<g clip-path="url(#clip0)">
<path d="M43.3802 5.97581L9.33999 15.0968C8.39228 15.3508 7.82988 16.3249 8.22933 17.8157L24.9094 80.0667C25.0179 80.4713 25.992 81.0337 26.9397 80.7798L73.9429 68.1853C74.8906 67.9314 75.453 66.9573 75.3446 66.5526L62.1379 17.2646C61.9191 16.4483 61.7397 16.2148 61.4954 16.0728L44.1905 6.08176C43.9454 5.94126 43.6535 5.90258 43.3802 5.97581Z" fill="#E9E9E0"/>
<path d="M44.0317 5.99121L47.7556 19.889L61.6535 16.1651L44.0317 5.99121Z" fill="#D9D7CA"/>
<path d="M73.9428 68.1855L26.9396 80.78C25.9919 81.0339 25.0178 80.4715 24.7638 79.5238L19.8809 61.3003L70.316 47.7862L75.199 66.0097C75.4529 66.9575 74.8905 67.9316 73.9428 68.1855Z" fill="#393939"/>
<path d="M33.9635 62.4596L37.1302 74.2778L35.2054 74.7936L33.7789 69.4697L28.6639 70.8403L30.0904 76.1641L28.134 76.6884L24.9673 64.8701L26.9237 64.3459L28.3116 69.5255L33.4266 68.1549L32.0388 62.9753L33.9635 62.4596V62.4596Z" fill="white"/>
<path d="M45.2844 59.4262L45.6367 60.741L42.1097 61.6861L44.9241 72.1895L42.9841 72.7093L40.1697 62.2059L36.6416 63.1513L36.2893 61.8364L45.2844 59.4262Z" fill="white"/>
<path d="M56.5419 56.4095L58.4984 55.8853L61.665 67.7035L59.7086 68.2277L57.53 60.0971L56.6455 67.3803L54.9459 67.8357L50.5219 61.9749L52.7005 70.1055L50.7441 70.6298L47.5774 58.8115L49.5338 58.2873L55.2112 65.4289L56.5419 56.4095Z" fill="white"/>
<path d="M63.421 54.5666L66.1967 64.9257L71.6332 63.469L72.0241 64.9281L64.6313 66.9091L61.4646 55.0908L63.421 54.5666Z" fill="white"/>
<path d="M32.3403 29.4163C31.7588 29.0806 31.0176 29.2792 30.6818 29.8607L25.5301 38.7839C25.1943 39.3654 25.393 40.1067 25.9744 40.4424L34.8976 45.5942C35.1876 45.7616 35.5187 45.7961 35.8189 45.7156C36.1192 45.6352 36.3886 45.4398 36.5561 45.1498C36.8918 44.5683 36.6932 43.827 36.1117 43.4913L28.24 38.9465L32.7847 31.0748C33.1204 30.4934 32.9218 29.7521 32.3403 29.4163Z" fill="#393939"/>
<path d="M55.3383 30.7966L46.4152 25.6448C45.8337 25.3091 45.0924 25.5077 44.7567 26.0892C44.421 26.6707 44.6196 27.412 45.2011 27.7477L53.0728 32.2924L48.528 40.1641C48.1923 40.7456 48.3909 41.4869 48.9724 41.8226C49.2624 41.99 49.5935 42.0245 49.8938 41.9441C50.194 41.8636 50.4635 41.6682 50.6309 41.3782L55.7827 32.4551C56.1184 31.8736 55.9198 31.1323 55.3383 30.7966Z" fill="#393939"/>
</g>
<defs>
<clipPath id="clip0">
<rect width="68" height="68" fill="white" transform="translate(0 17.5996) rotate(-15)"/>
</clipPath>
</defs>
</svg>
