<svg width="102" height="102" viewBox="0 0 102 102" fill="none" xmlns="http://www.w3.org/2000/svg">
<g clip-path="url(#clip0)">
<path d="M78.1355 21.7174L42.626 4.67595C41.6374 4.2015 40.4513 4.61831 39.705 6.17343L8.54043 71.1114C8.33785 71.5336 8.75466 72.7196 9.74328 73.194L58.7753 96.7251C59.7639 97.1996 60.95 96.7828 61.1525 96.3607L85.8275 44.9452C86.2362 44.0936 86.2539 43.7649 86.1501 43.4667L78.7456 22.3971C78.64 22.0995 78.4206 21.8542 78.1355 21.7174Z" fill="#E9E9E0"/>
<path d="M78.6768 22.2046L71.7191 36.7023L86.2168 43.6599L78.6768 22.2046Z" fill="#D9D7CA"/>
<path d="M58.7754 96.725L9.74334 73.1939C8.75472 72.7194 8.33791 71.5334 8.81236 70.5448L17.9355 51.5347L70.5477 76.7839L61.4245 95.794C60.95 96.7826 59.764 97.1994 58.7754 96.725Z" fill="#393939"/>
<path d="M39.6365 67.5476L35.0282 77.15C34.7499 77.7299 34.4092 78.167 34.0078 78.4606C33.6053 78.7537 33.1688 78.9356 32.6976 79.0045C32.2253 79.0728 31.7349 79.0438 31.2272 78.916C30.7195 78.7883 30.2182 78.6064 29.7288 78.3715C29.4828 78.2535 29.2077 78.0898 28.9038 77.8823C28.6 77.6748 28.2956 77.4338 27.9955 77.1589C27.6955 76.8839 27.4153 76.6019 27.1563 76.3135C26.8961 76.0246 26.6954 75.7431 26.5532 75.4686L28.056 74.5235C28.1304 74.654 28.2501 74.8123 28.417 74.9947C28.5838 75.1772 28.7714 75.3635 28.9826 75.5537C29.1921 75.7446 29.4191 75.9303 29.6601 76.1152C29.901 76.3 30.1389 76.4473 30.3726 76.5595C30.9623 76.8425 31.4898 76.9542 31.9502 76.8951C32.4106 76.836 32.7833 76.5362 33.0684 76.0017L37.5962 66.567L39.6371 67.5464L39.6365 67.5476Z" fill="white"/>
<path d="M45.2093 81.5405C44.9956 81.9859 44.6959 82.375 44.3104 82.7048C43.9248 83.0346 43.4899 83.279 43.0026 83.435C42.5152 83.591 41.9808 83.6476 41.3991 83.6018C40.8175 83.5559 40.2143 83.3824 39.5903 83.0829C39.3223 82.9543 39.0541 82.8075 38.7819 82.6438C38.5098 82.4801 38.2457 82.2931 37.9887 82.0885C37.731 81.882 37.4985 81.6576 37.293 81.4144C37.0876 81.1713 36.9293 80.9208 36.8201 80.6621L37.8618 79.3918C37.9744 79.5557 38.1309 79.7377 38.3308 79.936C38.5306 80.1342 38.7402 80.3312 38.9625 80.5267C39.183 80.7228 39.4123 80.9036 39.6476 81.0722C39.8821 81.239 40.1108 81.3773 40.3347 81.4848C41.015 81.8112 41.6126 81.9023 42.1274 81.758C42.6422 81.6137 43.0494 81.2295 43.3489 80.6055C43.5309 80.2262 43.5574 79.8416 43.4303 79.4509C43.302 79.0596 43.0977 78.6635 42.818 78.2613C42.5383 77.8592 42.2262 77.443 41.8842 77.0109C41.5421 76.5787 41.247 76.121 40.9994 75.6394C40.7506 75.1572 40.5937 74.6529 40.5306 74.1288C40.4662 73.6042 40.5797 73.0415 40.8686 72.4395C41.1305 71.8938 41.464 71.4562 41.8678 71.1292C42.2716 70.8021 42.7152 70.571 43.1969 70.4393C43.6786 70.3077 44.1836 70.2716 44.7103 70.3316C45.2369 70.3917 45.7511 70.5436 46.2527 70.7844C46.7654 71.0304 47.2613 71.3271 47.7397 71.6726C48.2182 72.0182 48.5676 72.3755 48.7902 72.7428C48.6536 72.8548 48.499 72.9763 48.3275 73.1078C48.1548 73.2387 47.9935 73.3584 47.8442 73.4719C47.6936 73.5849 47.5658 73.6786 47.4626 73.7525C47.3582 73.8258 47.2982 73.8662 47.2819 73.872C47.2304 73.8066 47.1769 73.7268 47.1195 73.63C47.0621 73.5332 46.9686 73.4206 46.8402 73.2897C46.7106 73.1583 46.5221 73.0211 46.2775 72.8751C46.0317 72.7286 45.6996 72.5767 45.2819 72.4184C45.0468 72.3342 44.8064 72.2956 44.5535 72.3052C44.3005 72.3147 44.0596 72.3587 43.8291 72.4407C43.5973 72.5222 43.3897 72.6378 43.2077 72.7913C43.025 72.943 42.8905 73.1103 42.8054 73.2877C42.5917 73.7331 42.5463 74.1539 42.6717 74.5512C42.7959 74.948 42.9995 75.3393 43.2795 75.7281C43.5596 76.1169 43.8744 76.5149 44.2289 76.9243C44.5809 77.3326 44.8824 77.7708 45.1345 78.2335C45.3866 78.6962 45.538 79.1994 45.5947 79.74C45.6533 80.2829 45.5252 80.8823 45.2093 81.5405Z" fill="white"/>
<path d="M45.5855 34.6975L47.9342 29.8033C48.2578 29.1292 49.0696 28.8429 49.745 29.167C50.4216 29.4917 51.2316 29.206 51.5557 28.5307C51.8798 27.8553 51.596 27.0446 50.9193 26.7199C48.8956 25.7487 46.4584 26.6052 45.4872 28.629L43.1384 33.5231C42.4907 34.8727 40.8665 35.4435 39.5169 34.7958C38.8403 34.4711 38.0303 34.7568 37.7062 35.4322C37.3821 36.1075 37.6659 36.9182 38.3426 37.2429C39.6921 37.8906 40.2629 39.5148 39.6153 40.8643L37.2665 45.7585C36.2953 47.7822 37.1518 50.2195 39.1755 51.1907C39.8521 51.5154 40.6621 51.2297 40.9863 50.5543C41.3104 49.8789 41.0265 49.0683 40.3499 48.7436C39.6745 48.4195 39.39 47.607 39.7136 46.9329L42.0623 42.0387C42.767 40.5705 42.7297 38.9479 42.133 37.5566C43.5917 37.1518 44.8808 36.1657 45.5855 34.6975Z" fill="#393939"/>
<path d="M54.7866 40.6188C55.8002 41.1052 57.0163 40.6779 57.5027 39.6643C57.9892 38.6507 57.5618 37.4346 56.5482 36.9482C55.5346 36.4617 54.3185 36.8891 53.8321 37.9027C53.3457 38.9163 53.773 40.1323 54.7866 40.6188Z" fill="#393939"/>
<path d="M68.8817 48.8885C67.5321 48.2408 66.9613 46.6166 67.609 45.267L69.9578 40.3729C70.929 38.3492 70.0725 35.9119 68.0487 34.9407C67.3721 34.616 66.5621 34.9017 66.238 35.5771C65.9139 36.2524 66.1977 37.0631 66.8744 37.3878C67.5497 37.7119 67.8342 38.5243 67.5107 39.1985L65.1619 44.0927C64.4573 45.5609 64.4945 47.1835 65.0913 48.5748C63.6325 48.9796 62.3434 49.9656 61.6388 51.4339L59.29 56.328C58.9665 57.0022 58.1547 57.2885 57.4793 56.9644C56.8027 56.6397 55.9927 56.9253 55.6686 57.6007C55.3444 58.2761 55.6283 59.0867 56.3049 59.4115C58.3286 60.3827 60.7659 59.5261 61.7371 57.5024L64.0859 52.6083C64.7335 51.2587 66.3578 50.6879 67.7073 51.3356C68.3839 51.6603 69.1939 51.3746 69.518 50.6992C69.8422 50.0238 69.5583 49.2132 68.8817 48.8885Z" fill="#393939"/>
<path d="M52.4379 45.5125C51.7613 45.1878 50.9513 45.4734 50.6272 46.1488L48.8656 49.8194C48.5415 50.4948 48.8253 51.3055 49.5019 51.6302C50.1786 51.9549 50.9885 51.6692 51.3127 50.9938L53.0742 47.3232C53.3984 46.6478 53.1145 45.8372 52.4379 45.5125Z" fill="#393939"/>
</g>
<defs>
<clipPath id="clip0">
<rect width="76" height="76" fill="white" transform="translate(32.8828) rotate(25.6369)"/>
</clipPath>
</defs>
</svg>
