<svg width="92" height="92" viewBox="0 0 92 92" fill="none" xmlns="http://www.w3.org/2000/svg">
<g clip-path="url(#clip0)">
<path d="M66.9326 12.7583L29.5695 2.74686C28.5293 2.46814 27.4601 3.08544 27.0216 4.72173L8.71328 73.0495C8.59427 73.4936 9.21157 74.5628 10.2518 74.8415L61.8433 88.6654C62.8835 88.9442 63.9527 88.3269 64.0717 87.8827L78.5676 33.7834C78.8077 32.8873 78.7652 32.5669 78.611 32.2979L67.6447 13.3037C67.4888 13.0356 67.2325 12.8386 66.9326 12.7583Z" fill="#E9E9E0"/>
<path d="M67.5435 13.1304L63.456 28.3848L78.7105 32.4722L67.5435 13.1304Z" fill="#D9D7CA"/>
<path d="M61.8435 88.6651L10.2521 74.8412C9.21186 74.5625 8.59455 73.4933 8.87328 72.4531L14.2329 52.4507L69.5913 67.2839L64.2317 87.2863C63.953 88.3266 62.8838 88.9439 61.8435 88.6651Z" fill="#5B5B5B"/>
<path d="M26.4944 60.8681L23.7872 70.9716C23.6237 71.5818 23.374 72.0655 23.0399 72.4217C22.7058 72.7778 22.3174 73.0325 21.8739 73.1841C21.4303 73.3357 20.9518 73.3965 20.4386 73.3653C19.9254 73.334 19.4098 73.2497 18.8936 73.1113C18.6361 73.0423 18.3395 72.9339 18.0086 72.7887C17.6778 72.6434 17.3403 72.4661 17.0008 72.2551C16.6614 72.0441 16.3398 71.8227 16.0376 71.5913C15.7353 71.3599 15.4906 71.1246 15.3023 70.8851L16.5815 69.7004C16.6769 69.8129 16.8212 69.944 17.0153 70.0898C17.2094 70.2357 17.4255 70.3819 17.6626 70.5268C17.8997 70.6718 18.1522 70.8112 18.4182 70.9459C18.6843 71.0807 18.9406 71.1798 19.1865 71.2456C19.8083 71.4123 20.3364 71.424 20.7701 71.2836C21.2037 71.1431 21.5091 70.7862 21.6874 70.2186L24.3474 60.2914L26.4948 60.8668L26.4944 60.8681Z" fill="white"/>
<path d="M34.4097 73.364C34.2841 73.8326 34.0654 74.2625 33.7531 74.6507C33.4407 75.0389 33.0652 75.3536 32.6231 75.5926C32.181 75.8315 31.6767 75.9834 31.1057 76.0442C30.5347 76.1051 29.9237 76.0476 29.2658 75.8714C28.9839 75.7958 28.6983 75.7027 28.406 75.594C28.1136 75.4853 27.8261 75.3531 27.5396 75.2019C27.2535 75.0493 26.9884 74.8748 26.746 74.6774C26.5036 74.48 26.3068 74.2671 26.1532 74.0369L26.9283 72.622C27.068 72.7601 27.2507 72.907 27.4796 73.0622C27.7085 73.2174 27.9465 73.3694 28.1965 73.5178C28.4465 73.6662 28.699 73.8001 28.9566 73.9202C29.2142 74.0403 29.459 74.1307 29.6946 74.1938C30.4104 74.3856 31.0037 74.3652 31.4744 74.1326C31.9452 73.9 32.2685 73.4554 32.4445 72.7988C32.5514 72.3997 32.5086 72.024 32.3138 71.6696C32.119 71.3152 31.85 70.9699 31.5071 70.6324C31.1643 70.295 30.7876 69.9498 30.3791 69.5947C29.9706 69.2397 29.6041 68.8517 29.2765 68.4314C28.949 68.0111 28.7074 67.5531 28.5502 67.0584C28.393 66.5637 28.4005 66 28.5702 65.3666C28.7241 64.7924 28.9666 64.3096 29.2971 63.9207C29.6276 63.5318 30.0139 63.2283 30.4549 63.0139C30.8959 62.7996 31.3769 62.6731 31.8961 62.6357C32.4153 62.5982 32.9391 62.6516 33.4669 62.793C34.0064 62.9375 34.5388 63.134 35.0632 63.3808C35.5877 63.6276 35.9896 63.9091 36.2711 64.2233C36.1596 64.3562 36.0337 64.5018 35.8907 64.6595C35.7477 64.8171 35.6137 64.9619 35.4902 65.0986C35.3666 65.2352 35.2603 65.3488 35.1728 65.4385C35.0853 65.5282 35.0347 65.5781 35.02 65.5866C34.9585 65.5329 34.8924 65.4655 34.8194 65.3825C34.7464 65.2994 34.6371 65.208 34.4882 65.1047C34.3392 65.0013 34.1337 64.9034 33.8699 64.8065C33.6061 64.7096 33.258 64.6233 32.8261 64.5462C32.5839 64.5075 32.3449 64.5138 32.1025 64.5689C31.86 64.624 31.6368 64.7104 31.4279 64.8311C31.2189 64.9517 31.0409 65.1013 30.8917 65.2821C30.7425 65.4629 30.6434 65.6475 30.5934 65.8341C30.4678 66.3028 30.5003 66.7171 30.6933 67.078C30.8864 67.4388 31.1539 67.7795 31.4934 68.1037C31.8329 68.4278 32.2115 68.7556 32.6265 69.0862C33.0416 69.4168 33.4108 69.7848 33.738 70.1857C34.0652 70.5866 34.3026 71.0448 34.4553 71.5562C34.608 72.0677 34.5953 72.6714 34.4097 73.364Z" fill="white"/>
<path d="M47.9543 73.7867C47.6618 74.8785 47.2664 75.8032 46.7677 76.5624C46.269 77.3215 45.701 77.9117 45.0668 78.3323C44.4325 78.7529 43.7517 79.0175 43.0247 79.1249C42.2977 79.2323 41.5469 79.1815 40.7732 78.9742C39.9995 78.7669 39.3238 78.4355 38.7479 77.979C38.1721 77.5225 37.7145 76.9542 37.3758 76.2715C37.0372 75.5888 36.84 74.795 36.7877 73.8882C36.7354 72.9815 36.8557 71.9816 37.1479 70.8911C37.44 69.8007 37.8351 68.8772 38.3321 68.1245C38.8291 67.3718 39.3963 66.7842 40.0306 66.3636C40.6649 65.943 41.3464 65.6758 42.0751 65.562C42.8038 65.4481 43.5553 65.4963 44.329 65.7037C45.1028 65.911 45.7777 66.245 46.3518 66.7079C46.926 67.1708 47.3829 67.7417 47.7216 68.4244C48.0602 69.1071 48.258 69.8983 48.3121 70.7987C48.3661 71.699 48.2469 72.695 47.9543 73.7867ZM41.1823 77.2362C41.6162 77.3525 42.0522 77.3783 42.4917 77.3139C42.9311 77.2495 43.3575 77.0643 43.7712 76.7612C44.185 76.4581 44.5658 76.0152 44.9093 75.4338C45.2527 74.8525 45.5529 74.1133 45.8066 73.2126C46.031 72.3289 46.14 71.5565 46.1349 70.8956C46.1299 70.2346 46.0318 69.6633 45.8388 69.1839C45.6458 68.7044 45.3828 68.3262 45.049 68.0477C44.7152 67.7693 44.337 67.5741 43.9134 67.4606C43.4796 67.3443 43.0446 67.3147 42.6065 67.374C42.1684 67.4332 41.7424 67.6171 41.3269 67.9266C40.9115 68.2361 40.5309 68.6778 40.1889 69.254C39.8459 69.8286 39.5477 70.5655 39.294 71.4662C39.0696 72.3499 38.9599 73.1249 38.9632 73.7923C38.9665 74.4596 39.0649 75.0297 39.2593 75.504C39.4537 75.9783 39.717 76.3552 40.0491 76.6401C40.3812 76.925 40.76 77.1231 41.1823 77.2362Z" fill="white"/>
<path d="M62.0322 70.6734L58.5564 83.6453L56.409 83.0699L53.7182 72.7659L51.3225 81.707L49.1751 81.1316L52.6509 68.1597L54.7983 68.7351L57.4891 79.039L59.8848 70.098L62.0322 70.6734Z" fill="white"/>
<path d="M37.868 31.1873L39.2479 26.0377C39.4379 25.3283 40.1696 24.9048 40.8802 25.0952C41.5922 25.286 42.3222 24.8635 42.5126 24.1528C42.703 23.4422 42.2821 22.7112 41.5701 22.5204C39.4408 21.9499 37.2436 23.2184 36.673 25.3478L35.2932 30.4974C34.9127 31.9174 33.4485 32.7628 32.0285 32.3823C31.3165 32.1915 30.5865 32.6141 30.3961 33.3247C30.2057 34.0354 30.6266 34.7663 31.3386 34.9571C32.7586 35.3376 33.6039 36.8018 33.2234 38.2218L31.8436 43.3714C31.2731 45.5008 32.5416 47.698 34.671 48.2685C35.3829 48.4593 36.1129 48.0367 36.3033 47.3261C36.4937 46.6154 36.0728 45.8845 35.3609 45.6937C34.6502 45.5033 34.2284 44.7707 34.4184 44.0614L35.7983 38.9117C36.2122 37.3669 35.8822 35.8075 35.0539 34.5728C36.3886 33.9176 37.4541 32.7322 37.868 31.1873Z" fill="#5B5B5B"/>
<path d="M47.8225 35.2346C48.889 35.5204 49.9853 34.8875 50.271 33.821C50.5568 32.7544 49.9239 31.6582 48.8574 31.3724C47.7909 31.0866 46.6946 31.7196 46.4088 32.7861C46.1231 33.8526 46.756 34.9489 47.8225 35.2346Z" fill="#5B5B5B"/>
<path d="M62.9259 40.6613C61.5059 40.2808 60.6606 38.8166 61.0411 37.3966L62.4209 32.2469C62.9915 30.1176 61.7229 27.9204 59.5936 27.3498C58.8816 27.1591 58.1516 27.5816 57.9612 28.2923C57.7708 29.0029 58.1917 29.7339 58.9036 29.9247C59.6143 30.1151 60.0362 30.8477 59.8461 31.557L58.4662 36.7066C58.0523 38.2515 58.3823 39.8109 59.2106 41.0456C57.8759 41.7008 56.8104 42.8862 56.3965 44.4311L55.0167 49.5807C54.8266 50.29 54.0949 50.7135 53.3843 50.5231C52.6724 50.3324 51.9423 50.7549 51.7519 51.4656C51.5615 52.1762 51.9824 52.9072 52.6944 53.0979C54.8237 53.6685 57.0209 52.4 57.5915 50.2706L58.9713 45.121C59.3518 43.701 60.816 42.8556 62.236 43.2361C62.948 43.4269 63.678 43.0043 63.8684 42.2936C64.0588 41.583 63.6379 40.852 62.9259 40.6613Z" fill="#5B5B5B"/>
<path d="M46.4427 40.384C45.7307 40.1933 45.0007 40.6158 44.8103 41.3265L43.7754 45.1887C43.585 45.8993 44.0059 46.6303 44.7179 46.821C45.4298 47.0118 46.1598 46.5892 46.3502 45.8786L47.3851 42.0164C47.5755 41.3057 47.1546 40.5748 46.4427 40.384Z" fill="#5B5B5B"/>
</g>
<defs>
<clipPath id="clip0">
<rect width="74.6379" height="74.6379" fill="white" transform="translate(19.3179) rotate(15)"/>
</clipPath>
</defs>
</svg>
