<svg width="77" height="77" viewBox="0 0 77 77" fill="none" xmlns="http://www.w3.org/2000/svg">
<g clip-path="url(#clip0)">
<path d="M50.4184 0.224609L11.0314 0.224609C9.93483 0.224609 9.0459 1.11354 9.0459 2.83847L9.0459 74.8675C9.0459 75.3357 9.93483 76.2246 11.0314 76.2246H65.4175C66.5141 76.2246 67.403 75.3357 67.403 74.8675V17.8376C67.403 16.893 67.2768 16.589 67.0543 16.3651L51.2625 0.573395C51.0386 0.350824 50.7346 0.224609 50.4184 0.224609Z" fill="#E9E9E0"/>
<path d="M51.1172 0.429443V16.5102H67.198L51.1172 0.429443Z" fill="#D9D7CA"/>
<path d="M65.4175 76.2247H11.0314C9.93483 76.2247 9.0459 75.3358 9.0459 74.2392L9.0459 53.1533H67.403V74.2392C67.403 75.3358 66.5141 76.2247 65.4175 76.2247Z" fill="#393939"/>
<path d="M29.3681 58.0014V68.6522C29.3681 69.2955 29.2501 69.837 29.0153 70.2754C28.7791 70.7137 28.4643 71.0666 28.0694 71.3326C27.6731 71.5986 27.2184 71.7845 26.7054 71.889C26.1924 71.9935 25.6618 72.0464 25.1189 72.0464C24.8461 72.0464 24.5272 72.0179 24.1635 71.9623C23.7998 71.9066 23.4211 71.8211 23.0316 71.7031C22.6421 71.585 22.2676 71.452 21.9093 71.3041C21.5496 71.1561 21.247 70.9892 21 70.8033L21.9459 69.3009C22.0694 69.3864 22.2459 69.4774 22.4752 69.5696C22.7046 69.6619 22.9543 69.7488 23.2271 69.8289C23.4985 69.9103 23.7835 69.9795 24.0807 70.0419C24.3779 70.1044 24.6561 70.1342 24.9154 70.1342C25.5695 70.1342 26.0934 70.0067 26.4829 69.7542C26.8724 69.5018 27.0786 69.0702 27.1044 68.4649V58H29.3681V58.0014Z" fill="white"/>
<path d="M40.3115 68.1487C40.3115 68.6427 40.2097 69.1231 40.0048 69.5873C39.7999 70.0514 39.5135 70.4599 39.1417 70.8114C38.7698 71.1629 38.3125 71.4452 37.7682 71.6556C37.224 71.8659 36.6052 71.9704 35.913 71.9704C35.6158 71.9704 35.3105 71.9541 34.9942 71.9243C34.678 71.8944 34.3591 71.8401 34.0388 71.7669C33.7172 71.6922 33.4105 71.5904 33.12 71.4601C32.8296 71.3299 32.5785 71.1724 32.3682 70.9865L32.7577 69.3905C32.93 69.4896 33.1499 69.5859 33.4159 69.6782C33.6819 69.7705 33.956 69.8574 34.241 69.9374C34.5247 70.0189 34.8097 70.0826 35.0947 70.1329C35.3783 70.1817 35.6443 70.2075 35.8927 70.2075C36.6472 70.2075 37.2254 70.0311 37.6271 69.6782C38.0288 69.3254 38.2297 68.8029 38.2297 68.1107C38.2297 67.69 38.0872 67.3317 37.8035 67.0345C37.5185 66.7373 37.1629 66.4686 36.7368 66.227C36.3107 65.9854 35.8492 65.7452 35.3539 65.5036C34.8585 65.2621 34.3944 64.9771 33.9628 64.65C33.5299 64.3229 33.1702 63.9361 32.8866 63.491C32.6016 63.0459 32.4605 62.4894 32.4605 61.8217C32.4605 61.2164 32.5717 60.6776 32.7943 60.2081C33.0169 59.7385 33.3168 59.3381 33.6941 59.0111C34.0714 58.684 34.5111 58.4329 35.0119 58.2592C35.5127 58.0855 36.042 58 36.5984 58C37.167 58 37.7425 58.0529 38.3233 58.1574C38.9042 58.2619 39.3737 58.4329 39.7334 58.6677C39.6587 58.8279 39.5719 59.0043 39.4742 59.197C39.3751 59.3897 39.2815 59.5675 39.196 59.7344C39.1091 59.9014 39.0345 60.0411 38.9734 60.1524C38.911 60.2637 38.8743 60.3261 38.8621 60.3384C38.7875 60.3017 38.7047 60.2529 38.611 60.1904C38.5174 60.128 38.3844 60.0669 38.212 60.0045C38.0383 59.9421 37.809 59.9 37.5253 59.8742C37.2403 59.8484 36.8752 59.8552 36.4301 59.8932C36.1817 59.919 35.9483 59.9882 35.7244 60.1063C35.5005 60.2244 35.3023 60.3682 35.1299 60.5419C34.9562 60.7156 34.8192 60.9097 34.7215 61.1269C34.6224 61.3426 34.5735 61.5516 34.5735 61.7484C34.5735 62.2424 34.7147 62.6414 34.9997 62.9454C35.2833 63.2494 35.6362 63.5141 36.0569 63.7434C36.4776 63.9728 36.9336 64.1954 37.4303 64.4111C37.9243 64.6269 38.3857 64.8916 38.8132 65.1996C39.2407 65.5077 39.595 65.8959 39.88 66.3586C40.1677 66.8228 40.3115 67.4186 40.3115 68.1487Z" fill="white"/>
<path d="M51.3913 58L42 72H44.6087L54 58H51.3913Z" fill="white"/>
<path d="M45.3913 58L54 72H51.6087L43 58H45.3913Z" fill="white"/>
<g clip-path="url(#clip1)">
<path d="M50.5994 21.6959C50.2162 21.5605 49.8299 21.4351 49.4404 21.3197C49.505 21.0494 49.5647 20.778 49.6195 20.5053C50.4967 16.1179 49.9232 12.5835 47.9645 11.42C46.0865 10.3041 43.0151 11.4676 39.9131 14.2488C39.6074 14.5235 39.3086 14.806 39.0167 15.0963C38.8213 14.9033 38.6225 14.7141 38.4202 14.5286C35.1692 11.5546 31.9106 10.3015 29.954 11.4685C28.0778 12.5875 27.522 15.9103 28.3118 20.0682C28.3904 20.48 28.4791 20.8895 28.5779 21.2967C28.1168 21.4316 27.6715 21.5754 27.2455 21.7284C23.4341 23.0974 21 25.2432 21 27.4687C21 29.7675 23.6129 32.0731 27.5829 33.4709C27.9048 33.5837 28.2293 33.6883 28.5564 33.7845C28.4502 34.2231 28.3559 34.6645 28.2736 35.1086C27.5206 39.1943 28.1087 42.4384 29.9799 43.5505C31.9127 44.6987 35.1565 43.5185 38.3152 40.6738C38.5649 40.4489 38.8153 40.2111 39.0664 39.9604C39.3825 40.2746 39.7069 40.5795 40.0396 40.8752C43.0992 43.5877 46.1209 44.6831 47.9906 43.568C49.9216 42.4164 50.549 38.9313 49.7342 34.6912C49.6721 34.3673 49.6001 34.0368 49.5184 33.6997C49.7462 33.6305 49.9694 33.5587 50.1878 33.4844C54.3149 32.0757 57 29.7982 57 27.4687C57 25.2352 54.4875 23.075 50.5994 21.6959ZM40.9227 15.4442C43.5805 13.061 46.0645 12.1201 47.1964 12.7927C48.4018 13.509 48.8707 16.3975 48.1133 20.1856C48.0636 20.4324 48.0097 20.6782 47.9514 20.923C46.3655 20.5526 44.7574 20.2909 43.1379 20.1395C42.2101 18.7662 41.1934 17.4589 40.0949 16.2265C40.3645 15.9587 40.6404 15.6979 40.9227 15.4442ZM31.6296 29.3699C31.9551 30.0178 32.2953 30.6575 32.6502 31.2891C33.0122 31.9332 33.3889 32.5682 33.7804 33.1939C32.6661 33.0694 31.5588 32.8859 30.4627 32.6443C30.7805 31.5869 31.1721 30.4878 31.6296 29.3699ZM31.6278 25.6434C31.18 24.549 30.7968 23.473 30.4839 22.434C31.511 22.1971 32.6063 22.0036 33.7476 21.8566C33.3656 22.4705 32.9977 23.0934 32.644 23.7253C32.2908 24.3564 31.9521 24.9957 31.6278 25.6434ZM32.4453 27.5068C32.9192 26.4907 33.4296 25.494 33.9766 24.5167V24.517C34.523 23.5402 35.1049 22.5858 35.7221 21.6539C36.7927 21.5705 37.8905 21.5268 39.0002 21.5268C40.1148 21.5268 41.214 21.5708 42.2843 21.6549C42.8949 22.5847 43.4731 23.5358 44.0188 24.5083C44.5673 25.4827 45.0847 26.4747 45.5708 27.4843C45.0899 28.5037 44.5743 29.5044 44.0239 30.4866H44.0238C43.4784 31.4626 42.9027 32.4196 42.2967 33.3576C41.2286 33.4362 40.1248 33.4767 39 33.4767C37.8798 33.4767 36.79 33.4408 35.7406 33.3707C35.1191 32.4354 34.5327 31.477 33.9812 30.4953C33.4327 29.5195 32.9207 28.5234 32.4453 27.5068H32.4453ZM45.3561 31.2781C45.7181 30.6311 46.0661 29.9761 46.4001 29.3129C46.8576 30.3782 47.2611 31.4673 47.609 32.5757C46.5003 32.8324 45.3794 33.0293 44.2508 33.1655C44.6313 32.544 44.9997 31.9149 45.356 31.2781H45.3561ZM46.3854 25.6445C46.0528 24.9941 45.7076 24.3508 45.3499 23.7145C44.9979 23.0882 44.633 22.4699 44.2551 21.8596C45.4039 22.009 46.5044 22.2076 47.5377 22.4507C47.206 23.5346 46.8214 24.6006 46.3854 25.6445H46.3854ZM39.0172 17.3596C39.766 18.2006 40.4731 19.08 41.1357 19.9945C39.7182 19.9255 38.3 19.9252 36.8809 19.9935C37.5803 19.0433 38.2967 18.1605 39.0172 17.3596ZM30.7244 12.8398C31.9289 12.1214 34.592 13.1457 37.399 15.7135C37.5784 15.8776 37.7586 16.0495 37.9391 16.2272C36.8341 17.4594 35.8097 18.7656 34.8724 20.1373C33.2567 20.2866 31.652 20.5436 30.0685 20.9066C29.9767 20.5278 29.8942 20.1469 29.8211 19.7638V19.7639C29.1444 16.2014 29.5937 13.5141 30.7244 12.8398ZM28.969 32.2583C28.6706 32.1702 28.3744 32.0747 28.0803 31.9716C26.5558 31.4774 25.1325 30.6985 23.8816 29.6736C23.5232 29.4202 23.219 29.0939 22.9879 28.7146C22.7568 28.3354 22.6036 27.9114 22.5378 27.4687C22.5378 26.1183 24.4923 24.3955 27.7518 23.2246C28.161 23.0783 28.574 22.9444 28.9909 22.823C29.4749 24.4226 30.061 25.9874 30.7455 27.5073C30.0525 29.0489 29.459 30.636 28.969 32.2583V32.2583ZM37.3032 39.4807C36.1261 40.5945 34.76 41.4756 33.2733 42.08H33.2731C32.8811 42.2733 32.4548 42.3817 32.0206 42.3985C31.5863 42.4154 31.1533 42.3402 30.7483 42.1778C29.6127 41.5032 29.1408 38.8981 29.7846 35.4042C29.8612 34.9913 29.9488 34.5808 30.0476 34.1728C31.6469 34.5267 33.2678 34.7685 34.8989 34.8963C35.8443 36.2759 36.8766 37.5899 37.9892 38.83C37.7657 39.0526 37.537 39.2695 37.3032 39.4807ZM39.0597 37.6898C38.3308 36.8794 37.6039 35.9832 36.8937 35.0191C37.583 35.0471 38.2851 35.0611 39 35.0611C39.7338 35.0611 40.4582 35.0446 41.1732 35.0114C40.5136 35.9408 39.8082 36.8348 39.0597 37.6898V37.6898ZM48.3986 39.8943C48.3654 40.3407 48.2437 40.7754 48.041 41.1714C47.8382 41.5674 47.5588 41.9164 47.22 42.1968C46.0855 42.8734 43.6592 41.9939 41.0427 39.6741C40.7427 39.4082 40.441 39.1248 40.1375 38.8239C41.2285 37.5795 42.2366 36.2606 43.1551 34.8761C44.7956 34.7335 46.4247 34.4748 48.0308 34.1019C48.1041 34.4072 48.1691 34.7063 48.2257 34.9991C48.5744 36.6061 48.633 38.2655 48.3986 39.8943V39.8943ZM49.7043 31.9805H49.7041C49.5074 32.0476 49.3053 32.1125 49.0995 32.1753C48.5961 30.5682 47.987 28.9984 47.2765 27.4766C47.9601 25.9751 48.5455 24.4282 49.0286 22.8463C49.3968 22.9562 49.7543 23.072 50.0988 23.1942C53.4302 24.3756 55.4622 26.1227 55.4622 27.4687C55.4622 28.9026 53.2676 30.764 49.7043 31.9805V31.9805Z" fill="#393939"/>
<path d="M38.9998 24.1565C39.6356 24.1565 40.2572 24.3507 40.7859 24.7147C41.3145 25.0786 41.7266 25.5959 41.9699 26.2011C42.2132 26.8063 42.2769 27.4723 42.1529 28.1148C42.0288 28.7572 41.7226 29.3474 41.2731 29.8106C40.8235 30.2738 40.2506 30.5893 39.627 30.7171C39.0034 30.8449 38.357 30.7793 37.7696 30.5286C37.1822 30.2779 36.6801 29.8534 36.3269 29.3087C35.9737 28.764 35.7851 28.1236 35.7852 27.4685C35.7852 26.5901 36.1238 25.7477 36.7267 25.1266C37.3296 24.5054 38.1472 24.1565 38.9998 24.1565" fill="#393939"/>
</g>
</g>
<defs>
<clipPath id="clip0">
<rect width="76" height="76" fill="white" transform="translate(0.224609 0.224609)"/>
</clipPath>
<clipPath id="clip1">
<rect width="36" height="33" fill="white" transform="translate(21 11)"/>
</clipPath>
</defs>
</svg>
