<svg xmlns="http://www.w3.org/2000/svg" viewBox="0 0 330.71 330.71"><defs><style>.cls-1{fill:none;}.cls-2{fill:#eaeaea;}</style></defs><title>PasportJs_1</title><g id="Capa_2" data-name="Capa 2"><g id="Capa_1-2" data-name="Capa 1"><rect class="cls-1" width="330.71" height="330.71"/><path class="cls-2" d="M164.16,17.36C99,17.36,47,70.34,47,135.76h59c0-32.68,25.65-59.2,58.21-59.2V17.36Z"/><path class="cls-2" d="M283.76,135.76c0-65.42-52.29-118.4-116.85-118.4v59.2c32.25,0,58.42,26.52,58.42,59.2Z"/><path class="cls-2" d="M165.36,254.16c65.41,0,118.4-52.2,118.4-116.64H225.33c0,32.19-27.3,58.32-60,58.32v58.32Z"/><polygon class="cls-2" points="106.16 254.16 106.16 137.76 46.96 137.76 46.96 313.36 165.36 313.36 165.36 254.16 106.16 254.16 106.16 254.16"/></g></g></svg>